<?xml version="1.0" encoding="utf-8"?><svg viewBox="0 0 50 46" xmlns="http://www.w3.org/2000/svg" xmlns:xlink="http://www.w3.org/1999/xlink"><style>:root>svg{display:none}:root>svg:target{display:block}</style><svg fill="none" viewBox="0 0 50 44" id="comment" xmlns="http://www.w3.org/2000/svg"><path d="M17.857 18.143a3.56 3.56 0 00-3.571-3.571 3.56 3.56 0 00-3.572 3.571 3.56 3.56 0 003.572 3.572 3.56 3.56 0 003.571-3.572zm10.714 0A3.56 3.56 0 0025 14.572a3.56 3.56 0 00-3.571 3.571A3.56 3.56 0 0025 21.715a3.56 3.56 0 003.571-3.572zm10.715 0a3.56 3.56 0 00-3.572-3.571 3.56 3.56 0 00-3.571 3.571 3.56 3.56 0 003.571 3.572 3.56 3.56 0 003.572-3.572zM25 3.857c11.607 0 21.429 6.53 21.429 14.286 0 7.757-9.822 14.286-21.429 14.286-1.2 0-2.427-.084-3.627-.224l-1.59-.167-1.2 1.06a27.654 27.654 0 01-7.673 4.772 20.109 20.109 0 001.953-4.8l.753-2.678-2.427-1.395C6.362 26.262 3.57 22.3 3.57 18.143c0-7.757 9.822-14.286 21.429-14.286zm25 14.286C50 8.293 38.811.286 25 .286S0 8.294 0 18.143c0 5.664 3.683 10.714 9.43 13.979-1.31 4.66-3.32 6.334-5.077 8.315-.419.502-.893.92-.754 1.618v.028c.14.614.642 1.06 1.2 1.06h.14c1.088-.14 2.176-.335 3.18-.614 4.827-1.228 9.18-3.515 12.835-6.752 1.312.14 2.679.223 4.046.223 13.811 0 25-7.98 25-17.857z" fill="#EBEAED"/></svg><svg fill="none" viewBox="0 0 45 45" id="hamb" xmlns="http://www.w3.org/2000/svg"><path fill-rule="evenodd" clip-rule="evenodd" d="M3.294 41.706C6.593 45 11.894 45 22.5 45s15.91 0 19.204-3.296C45 38.412 45 33.106 45 22.5c0-10.607 0-15.91-3.296-19.206C38.412 0 33.106 0 22.5 0 11.893 0 6.59 0 3.294 3.294 0 6.593 0 11.894 0 22.5s0 15.912 3.294 19.206zM37.688 31.5A1.687 1.687 0 0136 33.188H9a1.687 1.687 0 110-3.376h27a1.687 1.687 0 011.688 1.688zM36 24.187a1.687 1.687 0 100-3.375H9a1.687 1.687 0 100 3.375h27zM37.688 13.5A1.687 1.687 0 0136 15.188H9a1.687 1.687 0 110-3.376h27a1.687 1.687 0 011.688 1.688z" fill="#E93A7D"/></svg><svg fill="none" viewBox="0 0 40 46" id="html5" xmlns="http://www.w3.org/2000/svg"><path d="M31.529 13.8H12.723l.419 5.05H31.11l-1.395 15.18L19.7 36.79v.028h-.112l-10.1-2.79-.614-7.757h4.883l.362 3.907 5.47 1.478 5.496-1.478.614-6.362H8.622L7.31 8.917h24.665L31.53 13.8zM0 .714l3.571 40.123 16.016 4.52 16.127-4.52L39.286.714H0z" fill="#EBEAED"/></svg><svg fill="none" viewBox="0 0 16 18" id="play" xmlns="http://www.w3.org/2000/svg"><path d="M15.585 9.203L.764 17.44c-.171.096-.32.108-.447.033-.119-.074-.178-.208-.178-.402V.643c0-.194.06-.328.178-.402C.444.167.593.178.764.275L15.585 8.51c.171.097.257.212.257.346 0 .134-.086.25-.257.346z" fill="#fff"/></svg></svg>