<svg width="50" height="44" viewBox="0 0 50 44" fill="none" xmlns="http://www.w3.org/2000/svg">
<path d="M17.8571 18.143C17.8571 16.162 16.2667 14.5716 14.2857 14.5716C12.3047 14.5716 10.7143 16.162 10.7143 18.143C10.7143 20.1241 12.3047 21.7145 14.2857 21.7145C16.2667 21.7145 17.8571 20.1241 17.8571 18.143ZM28.5714 18.143C28.5714 16.162 26.981 14.5716 25 14.5716C23.019 14.5716 21.4286 16.162 21.4286 18.143C21.4286 20.1241 23.019 21.7145 25 21.7145C26.981 21.7145 28.5714 20.1241 28.5714 18.143ZM39.2857 18.143C39.2857 16.162 37.6953 14.5716 35.7143 14.5716C33.7333 14.5716 32.1429 16.162 32.1429 18.143C32.1429 20.1241 33.7333 21.7145 35.7143 21.7145C37.6953 21.7145 39.2857 20.1241 39.2857 18.143ZM25 3.85732C36.6071 3.85732 46.4286 10.3863 46.4286 18.143C46.4286 25.8997 36.6071 32.4287 25 32.4287C23.8002 32.4287 22.5725 32.345 21.3728 32.2055L19.7824 32.0381L18.5826 33.0984C16.2946 35.1073 13.7277 36.6977 10.9096 37.8696C11.635 36.5861 12.3326 35.0515 12.8627 33.0705L13.6161 30.3919L11.1886 28.9968C6.36161 26.2625 3.57143 22.3004 3.57143 18.143C3.57143 10.3863 13.3929 3.85732 25 3.85732ZM50 18.143C50 8.2937 38.8114 0.285889 25 0.285889C11.1886 0.285889 0 8.2937 0 18.143C0 23.8071 3.68304 28.8573 9.4308 32.1218C8.11942 36.7814 6.11049 38.4555 4.35268 40.4366C3.93415 40.9388 3.45982 41.3573 3.59933 42.0549C3.59933 42.0549 3.59933 42.0549 3.59933 42.0828C3.73884 42.6966 4.24107 43.143 4.79911 43.143C4.82701 43.143 4.88281 43.143 4.93862 43.143C6.02679 43.0035 7.11496 42.8082 8.11942 42.5292C12.9464 41.3015 17.2991 39.0136 20.9542 35.777C22.2656 35.9165 23.6328 36.0002 25 36.0002C38.8114 36.0002 50 28.0203 50 18.143Z" fill="#EBEAED"/>
</svg>
