<svg width="45" height="45" viewBox="0 0 45 45" fill="none" xmlns="http://www.w3.org/2000/svg">
<path fill-rule="evenodd" clip-rule="evenodd" d="M3.294 41.706C6.5925 45 11.8935 45 22.5 45C33.1065 45 38.4097 45 41.7037 41.7037C45 38.412 45 33.1065 45 22.5C45 11.8935 45 6.59025 41.7037 3.294C38.412 0 33.1065 0 22.5 0C11.8935 0 6.59025 0 3.294 3.294C0 6.5925 0 11.8935 0 22.5C0 33.1065 0 38.412 3.294 41.706ZM37.6875 31.5C37.6875 31.9476 37.5097 32.3768 37.1932 32.6932C36.8768 33.0097 36.4476 33.1875 36 33.1875H9C8.55245 33.1875 8.12322 33.0097 7.80676 32.6932C7.49029 32.3768 7.3125 31.9476 7.3125 31.5C7.3125 31.0524 7.49029 30.6232 7.80676 30.3068C8.12322 29.9903 8.55245 29.8125 9 29.8125H36C36.4476 29.8125 36.8768 29.9903 37.1932 30.3068C37.5097 30.6232 37.6875 31.0524 37.6875 31.5ZM36 24.1875C36.4476 24.1875 36.8768 24.0097 37.1932 23.6932C37.5097 23.3768 37.6875 22.9476 37.6875 22.5C37.6875 22.0524 37.5097 21.6232 37.1932 21.3068C36.8768 20.9903 36.4476 20.8125 36 20.8125H9C8.55245 20.8125 8.12322 20.9903 7.80676 21.3068C7.49029 21.6232 7.3125 22.0524 7.3125 22.5C7.3125 22.9476 7.49029 23.3768 7.80676 23.6932C8.12322 24.0097 8.55245 24.1875 9 24.1875H36ZM37.6875 13.5C37.6875 13.9476 37.5097 14.3768 37.1932 14.6932C36.8768 15.0097 36.4476 15.1875 36 15.1875H9C8.55245 15.1875 8.12322 15.0097 7.80676 14.6932C7.49029 14.3768 7.3125 13.9476 7.3125 13.5C7.3125 13.0524 7.49029 12.6232 7.80676 12.3068C8.12322 11.9903 8.55245 11.8125 9 11.8125H36C36.4476 11.8125 36.8768 11.9903 37.1932 12.3068C37.5097 12.6232 37.6875 13.0524 37.6875 13.5Z" fill="#E93A7D"/>
</svg>
